<svg width="44" height="52" viewBox="0 0 44 52" fill="none" xmlns="http://www.w3.org/2000/svg">
<path d="M4.83502 0.715694C2.72232 1.20538 0.914449 2.95266 0.262773 5.13399L0 6.0132V26.1459V46.2786L0.262773 47.1578C0.92496 49.3614 2.73284 51.0976 4.88757 51.5761C5.9807 51.821 26.498 51.821 27.5911 51.5761C29.441 51.1644 31.0387 49.8845 31.848 48.1483C32.5733 46.5903 32.5943 46.3899 32.5628 39.7569C32.5418 36.1845 32.4892 33.9697 32.4367 34.1033C32.3841 34.2257 32.2054 34.7154 32.0372 35.1828C31.5012 36.6853 30.408 37.6646 28.9786 37.9429C27.5175 38.2322 25.8884 37.4087 25.0685 35.9619L24.7532 35.4054L24.1015 35.3498C22.8402 35.2496 22.5354 35.0159 19.3296 31.6104C15.882 27.96 15.8189 27.8598 15.8189 26.1459C15.8189 24.432 15.882 24.3319 19.3296 20.6815C22.6615 17.1535 22.8507 17.0088 24.3222 16.9309C26.3298 16.8196 27.8013 18.0772 28.3479 20.3587C28.4425 20.726 28.474 20.637 29.1047 18.656C29.9981 15.8737 30.5237 15.1169 31.9637 14.5604L32.5838 14.3156V10.4649C32.5838 6.07997 32.5207 5.60141 31.8586 4.15462C31.1333 2.61879 29.9456 1.52813 28.3059 0.916023L27.486 0.604404L16.5021 0.582146C7.36814 0.571018 5.40261 0.593277 4.83502 0.715694ZM25.0895 4.35494C23.5444 8.50613 23.3447 8.90679 22.5144 9.46325C21.6209 10.0642 21.5684 10.0642 16.2393 10.0642C10.595 10.0642 10.637 10.0642 9.67003 9.15163C9.03938 8.55065 8.95529 8.38371 8.06186 6.02432L7.37865 4.22139H16.2604C23.3237 4.22139 25.1316 4.25478 25.0895 4.35494ZM21.0744 42.2944C21.3056 42.3612 21.6525 42.5726 21.8311 42.7618C22.5144 43.4407 22.5354 44.3199 21.9047 45.0656C21.3371 45.7222 21.0849 45.7444 15.9135 45.711C11.583 45.6777 11.3938 45.6665 11.0365 45.4439C9.71208 44.6315 9.99587 42.6505 11.4884 42.2833C12.035 42.1386 20.5909 42.1497 21.0744 42.2944Z" fill="#00A8A8"/>
<path d="M32.4257 16.7862C32.2575 16.8975 32.0263 17.0867 31.9212 17.2092C31.6269 17.5653 26.6973 33.3354 26.6973 33.9141C26.6973 34.8601 27.2438 35.5723 28.0637 35.6836C28.6943 35.7727 29.1778 35.628 29.5667 35.2385C29.8926 34.9157 30.1238 34.248 32.4572 26.8137C34.1285 21.5273 35.0009 18.5892 35.0009 18.2887C35.0009 17.02 33.4453 16.1074 32.4257 16.7862Z" fill="#00A8A8"/>
<path d="M23.8077 19.29C23.6396 19.3791 22.2521 20.7591 20.7385 22.3728C16.9231 26.4461 16.9231 25.8451 20.7385 29.9184C22.2521 31.5322 23.6396 32.9122 23.8288 33.0012C25.1847 33.6244 26.5511 32.3223 26.1622 30.7976C26.0676 30.397 25.7312 29.9852 24.0915 28.2379L22.1365 26.1456L24.0915 24.0533C26.1832 21.8275 26.3724 21.5159 26.2252 20.6478C26.015 19.4792 24.8168 18.8115 23.8077 19.29Z" fill="#00A8A8"/>
<path d="M36.4206 19.2902C35.6007 19.6797 35.2118 20.737 35.5271 21.6607C35.5902 21.8276 36.5257 22.9072 37.6083 24.0535L39.5738 26.1458L37.5558 28.2826C35.8425 30.1078 35.5377 30.4973 35.4746 30.8534C35.2118 32.3113 36.2209 33.3797 37.5978 33.1015C37.9447 33.0347 38.3651 32.6452 40.709 30.1745C42.2016 28.6053 43.4944 27.1808 43.5785 27.0138C43.7677 26.6243 43.7677 25.6672 43.5785 25.2777C43.3473 24.8214 38.1444 19.3792 37.808 19.2457C37.4086 19.0899 36.799 19.1121 36.4206 19.2902Z" fill="#00A8A8"/>
</svg>
