<svg width="44" height="44" viewBox="0 0 44 44" fill="none" xmlns="http://www.w3.org/2000/svg">
<path d="M2.72122 0.731477C1.70898 1.09724 0.960433 1.77774 0.47558 2.76446L0.203381 3.32587L0.177862 7.04308L0.152344 10.7688H21.9367H43.7211L43.6956 7.04308L43.6701 3.32587L43.3809 2.73044C42.9981 1.94786 42.3261 1.27587 41.5435 0.893095L40.9481 0.603884L22.0643 0.586871C3.59736 0.56986 3.17205 0.56986 2.72122 0.731477ZM37.8433 5.89474C38.2346 6.13292 38.4388 6.49868 38.4388 6.94101C38.4388 7.38333 38.2346 7.7491 37.8433 7.98727C37.5456 8.17441 37.5116 8.17441 33.4201 8.17441C29.4477 8.17441 29.2861 8.1659 29.0139 8.00428C28.6311 7.77461 28.4014 7.38333 28.4014 6.94951C28.4014 6.32856 28.7502 5.89474 29.3797 5.74163C29.5158 5.70761 31.4126 5.68209 33.5902 5.69059C37.4946 5.70761 37.5456 5.70761 37.8433 5.89474ZM7.25502 5.91176C7.62079 6.15844 7.81643 6.50719 7.81643 6.94101C7.81643 7.6215 7.30606 8.13188 6.62557 8.13188C5.72391 8.13188 5.13698 7.16217 5.56229 6.35408C5.84299 5.80118 6.72764 5.57151 7.25502 5.91176ZM12.3587 5.91176C13.1158 6.41362 13.1158 7.46839 12.3587 7.97026C11.8399 8.31051 11.0658 8.12337 10.7 7.57047C10.5044 7.27275 10.4874 6.68582 10.666 6.35408C10.9467 5.80118 11.8314 5.57151 12.3587 5.91176ZM17.4625 5.91176C17.8282 6.15844 18.0239 6.50719 18.0239 6.94101C18.0239 8.14889 16.4757 8.5827 15.8038 7.57047C15.6081 7.27275 15.5911 6.68582 15.7697 6.35408C16.0504 5.80118 16.9351 5.57151 17.4625 5.91176Z" fill="#00A8A8"/>
<path d="M0.0170124 27.2452L0.042531 41.1784L0.31473 41.7398C0.808089 42.7521 1.57365 43.424 2.6029 43.7728C3.09626 43.9429 3.34294 43.9429 21.946 43.9259L40.7872 43.9004L41.3827 43.6112C42.1653 43.2284 42.8372 42.5564 43.22 41.7738L43.5092 41.1784L43.5348 27.2452L43.5518 13.3206H21.7759H0L0.0170124 27.2452ZM26.1991 17.361C26.5308 17.5312 26.7945 17.9905 26.7945 18.4073C26.7945 18.671 25.9014 20.8316 22.9242 27.7811C20.7977 32.7488 19.0029 36.8913 18.9348 36.9848C18.45 37.6739 17.3952 37.6398 16.9188 36.9168C16.5701 36.3809 16.502 36.551 20.6786 26.8029C24.3873 18.1521 24.6255 17.6417 24.9147 17.4376C25.2719 17.1994 25.8163 17.1654 26.1991 17.361ZM14.7753 21.2399C14.9284 21.3334 15.1155 21.5291 15.1836 21.6567C15.3537 21.9884 15.3452 22.5498 15.1666 22.856C15.09 22.9836 13.8396 24.0384 12.402 25.1953C10.9645 26.3436 9.78214 27.3133 9.78214 27.3558C9.78214 27.3899 10.9815 28.3851 12.4446 29.5589C13.9332 30.7413 15.1581 31.7791 15.2091 31.9066C15.3452 32.2129 15.3367 32.7573 15.1836 33.055C14.9284 33.5483 14.0778 33.8205 13.5929 33.5568C13.1421 33.3187 6.73691 28.1044 6.65185 27.9087C6.52426 27.628 6.52426 27.0836 6.65185 26.8029C6.73691 26.6158 13.0655 21.4525 13.5674 21.1633C13.8481 21.0017 14.452 21.0442 14.7753 21.2399ZM29.9589 21.1548C30.4097 21.393 36.8148 26.6073 36.8999 26.8029C36.9595 26.922 37.002 27.1772 37.002 27.3558C37.002 27.5345 36.9595 27.7896 36.8999 27.9087C36.8148 28.1044 30.4097 33.3187 29.9589 33.5568C29.474 33.8205 28.6234 33.5483 28.3682 33.055C28.1981 32.7232 28.2066 32.1618 28.3852 31.8556C28.4618 31.728 29.7122 30.6732 31.1497 29.5164C32.5873 28.3681 33.7696 27.3899 33.7696 27.3558C33.7696 27.3218 32.5873 26.3436 31.1497 25.1953C29.7122 24.0384 28.4618 22.9836 28.3852 22.856C28.079 22.3287 28.2661 21.5376 28.7765 21.2314C29.0827 21.0442 29.6781 21.0102 29.9589 21.1548Z" fill="#00A8A8"/>
</svg>
