<svg width="56" height="52" viewBox="0 0 56 52" fill="none" xmlns="http://www.w3.org/2000/svg">
<path d="M42.7976 0.83556C42.5358 1.02906 42.0122 1.82584 40.965 3.63566C40.1568 5.03571 39.4511 6.36747 39.3828 6.6065C38.9617 8.16591 41.0333 9.31554 42.1374 8.13176C42.2967 7.94964 43.0935 6.66342 43.8903 5.26336C45.222 2.94133 45.3586 2.65676 45.3473 2.16732C45.3473 1.85999 45.2562 1.50713 45.1424 1.32501C44.6529 0.585145 43.5147 0.346111 42.7976 0.83556Z" fill="#00A8A8"/>
<path d="M27.5796 2.38376C26.0657 2.91874 25.1437 4.27326 25.1551 5.92373C25.1665 6.27659 25.2348 6.75465 25.3145 6.98231C25.4624 7.38069 25.4397 7.44899 24.8136 8.80351C23.0266 12.6849 20.1809 16.6119 16.4475 20.334C15.6279 21.1422 14.4783 22.2235 13.8978 22.7243C13.3059 23.2252 12.6685 23.7601 12.4863 23.9309L12.1562 24.2155L15.8214 30.5897C17.8475 34.0841 19.5094 36.9639 19.5207 36.9866C19.5435 37.0094 20.5338 36.6907 21.729 36.2809C26.8169 34.5508 31.5407 33.6971 36.1392 33.6857C37.3913 33.6857 38.928 33.7426 39.5654 33.8109C40.6922 33.9475 40.715 33.9475 41.25 34.4483C42.0354 35.1768 42.8435 35.45 43.9932 35.3931C45.4388 35.3134 46.4746 34.6305 47.1348 33.3442C47.4421 32.741 47.5445 31.5344 47.3624 30.7946C47.2827 30.4872 46.0876 28.2904 44.5054 25.5472C43.0029 22.9406 41.7736 20.7779 41.7736 20.7324C41.7736 20.6869 41.9329 20.5844 42.1264 20.5047C42.6728 20.2771 43.572 19.321 43.8907 18.6494C44.494 17.329 44.4826 15.9745 43.868 14.711C42.8208 12.5825 40.1231 11.7174 37.9491 12.8215C37.6531 12.9695 37.3685 13.072 37.3344 13.0492C37.2889 13.0264 36.0596 10.9093 34.5912 8.35959C32.9407 5.47981 31.757 3.55616 31.4724 3.26022C30.5163 2.29271 28.8772 1.91708 27.5796 2.38376Z" fill="#00A8A8"/>
<path d="M51.5061 8.10903C50.2882 8.76922 46.9304 10.7612 46.7482 10.9319C46.4182 11.2506 46.236 11.9222 46.3271 12.4458C46.4864 13.2653 47.3743 13.8914 48.1938 13.7434C48.7288 13.6409 53.2591 11.0116 53.703 10.5449C54.0103 10.2034 54.0672 10.0668 54.0672 9.57738C54.0672 9.25867 53.9875 8.8489 53.8965 8.65539C53.4981 7.89276 52.394 7.64235 51.5061 8.10903Z" fill="#00A8A8"/>
<path d="M48.1589 19.2299C47.6125 19.5031 47.328 19.9356 47.2711 20.5844C47.2141 21.2332 47.4873 21.7454 48.0564 22.0983C48.4093 22.3145 48.637 22.3259 51.6533 22.3259C55.2161 22.3259 55.3526 22.3032 55.7738 21.6088C56.0584 21.1421 56.0697 20.2657 55.8079 19.8104C55.6941 19.6283 55.3982 19.3779 55.1478 19.2526C54.7152 19.0478 54.4307 19.025 51.6078 19.025C48.9215 19.025 48.5004 19.0478 48.1589 19.2299Z" fill="#00A8A8"/>
<path d="M6.54495 26.8676C3.50582 28.6206 3.16434 28.8482 2.27651 29.736C0.682952 31.3068 0 32.9573 0 35.3021C0 36.6794 0.18212 37.4989 0.728482 38.6599C2.45863 42.3137 6.70431 44.0439 10.5288 42.6552C10.9158 42.5186 12.7257 41.5397 14.5583 40.4811C17.0966 39.0242 17.8706 38.5234 17.8364 38.3868C17.7112 37.9656 10.1304 25.0009 9.99386 24.9781C9.91418 24.9668 8.36616 25.8091 6.54495 26.8676Z" fill="#00A8A8"/>
<path d="M16.7543 41.6647C15.4908 42.4046 14.3981 43.0534 14.3412 43.1103C14.2046 43.2469 20.0894 50.9415 20.6244 51.3171C21.0683 51.6472 21.8764 51.67 22.3659 51.3626C22.5594 51.2488 23.2082 50.6797 23.8229 50.0878L24.927 49.0178V48.3804C24.927 47.8341 24.87 47.6519 24.5627 47.208C23.5838 45.8307 19.2812 40.3216 19.1788 40.3216C19.1219 40.3216 18.0291 40.9249 16.7543 41.6647Z" fill="#00A8A8"/>
</svg>
