<svg width="228" height="95" viewBox="0 0 228 95" fill="none" xmlns="http://www.w3.org/2000/svg">
<ellipse cx="113.474" cy="30.5326" rx="29.4737" ry="30.1754" fill="#00A8A8"/>
<path d="M94.2448 45.4045H90.0801L100.27 31.07L110.46 45.4045H98.4981L101.422 41.2312H103.194L100.27 37.0578L94.2448 45.4045Z" fill="white"/>
<path d="M114.359 45.4045L102.22 28.2575L104.346 25.2636L118.613 45.4045H114.359Z" fill="white"/>
<path d="M122.423 45.4045L106.384 22.5419L108.334 19.6387L124.638 42.4106L132.613 31.07H136.866L126.765 45.4045H122.423Z" fill="white"/>
<path d="M117.058 19.9462C117.093 19.9769 117.608 20.1766 118.199 20.3916C118.789 20.6118 119.5 20.9088 119.775 21.0521C120.776 21.5795 121.742 22.4601 122.373 23.433C122.798 24.0832 122.979 24.4826 123.444 25.7984C123.834 26.9044 123.919 27.058 124.09 26.9453C124.145 26.9095 124.335 26.4435 124.565 25.7984C125.03 24.4826 125.211 24.0832 125.636 23.433C126.267 22.4601 127.233 21.5795 128.234 21.0521C128.509 20.9088 129.219 20.6118 129.81 20.3968C130.401 20.1766 130.916 19.9667 130.956 19.9308C130.996 19.895 131.011 19.8182 130.991 19.7414C130.966 19.6339 130.841 19.5724 129.95 19.2499C129.39 19.0451 128.724 18.7737 128.464 18.6508C127.047 17.9698 125.891 16.8127 125.181 15.3637C125.06 15.118 124.815 14.5036 124.64 13.9967C124.135 12.5631 124.165 12.6296 123.989 12.6501C123.844 12.6655 123.834 12.6808 123.429 13.8175C123.204 14.4524 122.923 15.1692 122.803 15.4047C122.093 16.8383 120.952 17.975 119.545 18.6508C119.285 18.7737 118.624 19.0399 118.074 19.2447C117.523 19.4444 117.058 19.639 117.038 19.6697C116.978 19.7619 116.993 19.8899 117.058 19.9462Z" fill="white"/>
<g clip-path="url(#clip0_186_4309)">
<path d="M5.9994 77.3807L6.16036 77.8751L12.0932 93.8608H14.5308V93.6725L8.29895 77.3807H5.9994ZM5.9994 77.3807L-0.232422 93.6725V93.8608H2.20512L8.13797 77.8751L8.29895 77.3807H5.9994Z" fill="white"/>
</g>
<g clip-path="url(#clip1_186_4309)">
<path d="M17.7759 94.0288V77.5486H20.0754V94.0288H17.7759Z" fill="white"/>
</g>
<path d="M83.8182 77.6187L83.9792 78.1131L89.9121 94.0989H92.3496V93.9105L86.1178 77.6187H83.8182ZM83.8182 77.6187L77.5864 93.9105V94.0989H80.024L85.9568 78.1131L86.1178 77.6187H83.8182Z" fill="white"/>
<path d="M45.2974 94.0988V77.6187H47.5969V94.0988H45.2974Z" fill="white"/>
<g clip-path="url(#clip2_186_4309)">
<path d="M34.0336 94.0285L34.1945 93.5341L40.1274 77.5483H42.565V77.7367L36.3331 94.0285H34.0336ZM34.0336 94.0285L27.8018 77.7367V77.5483H30.2393L36.1722 93.5341L36.3331 94.0285H34.0336Z" fill="white"/>
</g>
<g clip-path="url(#clip3_186_4309)">
<path d="M56.7683 94.3584C55.6645 94.3584 54.668 94.1544 53.7788 93.7463C52.8897 93.3382 52.1462 92.7653 51.5483 92.0276C50.9657 91.2899 50.5748 90.4267 50.3755 89.4379L52.4681 88.8964L52.721 88.9435C52.9203 89.5556 53.2116 90.1049 53.5949 90.5915C53.9935 91.0624 54.4687 91.439 55.0206 91.7216C55.5725 91.9884 56.1704 92.1218 56.8142 92.1218C57.4735 92.1218 58.0484 92.0119 58.5389 91.7922C59.0448 91.5724 59.4434 91.2742 59.7347 90.8975C60.026 90.5052 60.1716 90.0578 60.1716 89.5556C60.1716 88.8964 59.9876 88.3863 59.6197 88.0253C59.2518 87.6643 58.7152 87.3896 58.01 87.2013L55.0206 86.3537C53.7022 85.9927 52.6981 85.412 52.0082 84.6115C51.3183 83.7954 50.9734 82.8536 50.9734 81.7864C50.9734 80.8917 51.1957 80.107 51.6402 79.432C52.1002 78.7414 52.7364 78.2 53.5489 77.8076C54.3614 77.4152 55.2966 77.219 56.3544 77.219C57.3815 77.219 58.3013 77.4152 59.1138 77.8076C59.9417 78.1843 60.6239 78.7179 61.1604 79.4085C61.7123 80.0991 62.0726 80.9231 62.2412 81.8805L60.2176 82.3279L59.9647 82.2808C59.7654 81.4018 59.3438 80.7112 58.6999 80.209C58.056 79.7067 57.2665 79.4556 56.3314 79.4556C55.4422 79.4556 54.7293 79.6753 54.1928 80.1148C53.6562 80.5386 53.3879 81.0958 53.3879 81.7864C53.3879 82.3671 53.5795 82.8458 53.9628 83.2225C54.3614 83.5992 54.9286 83.8974 55.6645 84.1171L58.6539 84.9411C59.9263 85.2864 60.8998 85.8436 61.5744 86.6127C62.2642 87.3818 62.6091 88.3235 62.6091 89.4379C62.6091 90.4267 62.3639 91.2899 61.8733 92.0276C61.3827 92.7653 60.7005 93.3382 59.8267 93.7463C58.9528 94.1544 57.9334 94.3584 56.7683 94.3584Z" fill="white"/>
</g>
<g clip-path="url(#clip4_186_4309)">
<path d="M70.2374 94.0285V77.5483H72.537V94.0285H70.2374ZM65.3394 79.8085V77.5483H77.435V79.8085H65.3394Z" fill="white"/>
</g>
<g clip-path="url(#clip5_186_4309)">
<path d="M106.48 94.3584C105.376 94.3584 104.379 94.1544 103.49 93.7463C102.601 93.3382 101.858 92.7653 101.26 92.0276C100.677 91.2899 100.286 90.4267 100.087 89.4379L102.18 88.8964L102.432 88.9435C102.632 89.5556 102.923 90.1049 103.306 90.5915C103.705 91.0624 104.18 91.439 104.732 91.7216C105.284 91.9884 105.882 92.1218 106.526 92.1218C107.185 92.1218 107.76 92.0119 108.25 91.7922C108.756 91.5724 109.155 91.2742 109.446 90.8975C109.737 90.5052 109.883 90.0578 109.883 89.5556C109.883 88.8964 109.699 88.3863 109.331 88.0253C108.963 87.6643 108.427 87.3896 107.721 87.2013L104.732 86.3537C103.414 85.9927 102.409 85.412 101.72 84.6115C101.03 83.7954 100.685 82.8536 100.685 81.7864C100.685 80.8917 100.907 80.107 101.352 79.432C101.812 78.7414 102.448 78.2 103.26 77.8076C104.073 77.4152 105.008 77.219 106.066 77.219C107.093 77.219 108.013 77.4152 108.825 77.8076C109.653 78.1843 110.335 78.7179 110.872 79.4085C111.424 80.0991 111.784 80.9231 111.953 81.8805L109.929 82.3279L109.676 82.2808C109.477 81.4018 109.055 80.7112 108.411 80.209C107.767 79.7067 106.978 79.4556 106.043 79.4556C105.154 79.4556 104.441 79.6753 103.904 80.1148C103.368 80.5386 103.099 81.0958 103.099 81.7864C103.099 82.3671 103.291 82.8458 103.674 83.2225C104.073 83.5992 104.64 83.8974 105.376 84.1171L108.365 84.9411C109.638 85.2864 110.611 85.8436 111.286 86.6127C111.976 87.3818 112.321 88.3235 112.321 89.4379C112.321 90.4267 112.075 91.2899 111.585 92.0276C111.094 92.7653 110.412 93.3382 109.538 93.7463C108.664 94.1544 107.645 94.3584 106.48 94.3584Z" fill="#00A8A8"/>
</g>
<g clip-path="url(#clip6_186_4309)">
<path d="M122.795 94.3584C121.308 94.3584 119.982 94.0052 118.817 93.2989C117.652 92.577 116.74 91.5724 116.081 90.2854C115.437 88.9984 115.115 87.4995 115.115 85.7887C115.115 84.0779 115.437 82.579 116.081 81.292C116.74 80.0049 117.652 79.0083 118.817 78.302C119.982 77.58 121.308 77.219 122.795 77.219C124.298 77.219 125.624 77.58 126.774 78.302C127.939 79.0083 128.843 80.0049 129.487 81.292C130.146 82.579 130.476 84.0779 130.476 85.7887C130.476 87.4995 130.146 88.9984 129.487 90.2854C128.843 91.5724 127.939 92.577 126.774 93.2989C125.624 94.0052 124.298 94.3584 122.795 94.3584ZM122.795 92.0983C123.822 92.0983 124.742 91.8393 125.555 91.3213C126.367 90.8034 127.003 90.0735 127.463 89.1318C127.923 88.1744 128.153 87.06 128.153 85.7887C128.153 84.5017 127.923 83.3873 127.463 82.4456C127.003 81.5038 126.367 80.774 125.555 80.256C124.742 79.7381 123.822 79.4791 122.795 79.4791C121.768 79.4791 120.848 79.7381 120.036 80.256C119.239 80.774 118.602 81.5038 118.127 82.4456C117.667 83.3873 117.437 84.5017 117.437 85.7887C117.437 87.06 117.667 88.1744 118.127 89.1318C118.602 90.0735 119.239 90.8034 120.036 91.3213C120.848 91.8393 121.768 92.0983 122.795 92.0983Z" fill="#00A8A8"/>
</g>
<g clip-path="url(#clip7_186_4309)">
<path d="M133.227 94.2663V77.7861H135.526V94.2663H133.227ZM134.399 94.2663V92.0062H143.46V94.2663H134.399Z" fill="#00A8A8"/>
</g>
<g clip-path="url(#clip8_186_4309)">
<path d="M152.263 94.3581C151.021 94.3581 149.948 94.107 149.043 93.6047C148.139 93.0868 147.441 92.357 146.951 91.4152C146.475 90.4578 146.238 89.3199 146.238 88.0015V77.5483H148.537V88.0486C148.537 89.3513 148.852 90.3558 149.48 91.0621C150.124 91.7527 151.052 92.098 152.263 92.098C153.474 92.098 154.394 91.7527 155.022 91.0621C155.666 90.3558 155.988 89.3513 155.988 88.0486V77.5483H158.31V88.0015C158.31 89.3199 158.065 90.4578 157.575 91.4152C157.084 92.357 156.387 93.0868 155.482 93.6047C154.578 94.107 153.504 94.3581 152.263 94.3581Z" fill="#00A8A8"/>
</g>
<g clip-path="url(#clip9_186_4309)">
<path d="M165.943 94.2663V77.7861H168.243V94.2663H165.943ZM161.045 80.0463V77.7861H173.141V80.0463H161.045Z" fill="#00A8A8"/>
</g>
<g clip-path="url(#clip10_186_4309)">
<path d="M175.969 94.2663V77.7861H178.268V94.2663H175.969Z" fill="#00A8A8"/>
</g>
<g clip-path="url(#clip11_186_4309)">
<path d="M188.767 94.3584C187.28 94.3584 185.954 94.0052 184.789 93.2989C183.624 92.577 182.711 91.5724 182.052 90.2854C181.408 88.9984 181.086 87.4995 181.086 85.7887C181.086 84.0779 181.408 82.579 182.052 81.292C182.711 80.0049 183.624 79.0083 184.789 78.302C185.954 77.58 187.28 77.219 188.767 77.219C190.269 77.219 191.595 77.58 192.745 78.302C193.91 79.0083 194.815 80.0049 195.459 81.292C196.118 82.579 196.447 84.0779 196.447 85.7887C196.447 87.4995 196.118 88.9984 195.459 90.2854C194.815 91.5724 193.91 92.577 192.745 93.2989C191.595 94.0052 190.269 94.3584 188.767 94.3584ZM188.767 92.0983C189.794 92.0983 190.714 91.8393 191.526 91.3213C192.339 90.8034 192.975 90.0735 193.435 89.1318C193.895 88.1744 194.125 87.06 194.125 85.7887C194.125 84.5017 193.895 83.3873 193.435 82.4456C192.975 81.5038 192.339 80.774 191.526 80.256C190.714 79.7381 189.794 79.4791 188.767 79.4791C187.74 79.4791 186.82 79.7381 186.007 80.256C185.21 80.774 184.574 81.5038 184.099 82.4456C183.639 83.3873 183.409 84.5017 183.409 85.7887C183.409 87.06 183.639 88.1744 184.099 89.1318C184.574 90.0735 185.21 90.8034 186.007 91.3213C186.82 91.8393 187.74 92.0983 188.767 92.0983Z" fill="#00A8A8"/>
</g>
<g clip-path="url(#clip12_186_4309)">
<path d="M209.73 94.2663L199.198 78.4218V77.7861H201.498L212.053 93.6307V94.2663H209.73ZM199.198 94.2663V77.7861H201.498V94.2663H199.198ZM209.73 94.2663V77.7861H212.053V94.2663H209.73Z" fill="#00A8A8"/>
</g>
<g clip-path="url(#clip13_186_4309)">
<path d="M221.266 94.3584C220.162 94.3584 219.166 94.1544 218.276 93.7463C217.387 93.3382 216.644 92.7653 216.046 92.0276C215.463 91.2899 215.072 90.4267 214.873 89.4379L216.966 88.8964L217.219 88.9435C217.418 89.5556 217.709 90.1049 218.092 90.5915C218.491 91.0624 218.966 91.439 219.518 91.7216C220.07 91.9884 220.668 92.1218 221.312 92.1218C221.971 92.1218 222.546 92.0119 223.036 91.7922C223.542 91.5724 223.941 91.2742 224.232 90.8975C224.524 90.5052 224.669 90.0578 224.669 89.5556C224.669 88.8964 224.485 88.3863 224.117 88.0253C223.749 87.6643 223.213 87.3896 222.508 87.2013L219.518 86.3537C218.2 85.9927 217.196 85.412 216.506 84.6115C215.816 83.7954 215.471 82.8536 215.471 81.7864C215.471 80.8917 215.693 80.107 216.138 79.432C216.598 78.7414 217.234 78.2 218.046 77.8076C218.859 77.4152 219.794 77.219 220.852 77.219C221.879 77.219 222.799 77.4152 223.611 77.8076C224.439 78.1843 225.121 78.7179 225.658 79.4085C226.21 80.0991 226.57 80.9231 226.739 81.8805L224.715 82.3279L224.462 82.2808C224.263 81.4018 223.841 80.7112 223.197 80.209C222.554 79.7067 221.764 79.4556 220.829 79.4556C219.94 79.4556 219.227 79.6753 218.69 80.1148C218.154 80.5386 217.885 81.0958 217.885 81.7864C217.885 82.3671 218.077 82.8458 218.46 83.2225C218.859 83.5992 219.426 83.8974 220.162 84.1171L223.151 84.9411C224.424 85.2864 225.397 85.8436 226.072 86.6127C226.762 87.3818 227.107 88.3235 227.107 89.4379C227.107 90.4267 226.861 91.2899 226.371 92.0276C225.88 92.7653 225.198 93.3382 224.324 93.7463C223.45 94.1544 222.431 94.3584 221.266 94.3584Z" fill="#00A8A8"/>
</g>
<defs>
<clipPath id="clip0_186_4309">
<rect width="15.0992" height="16.6478" fill="white" transform="matrix(1 0 0 -1 0 94.0286)"/>
</clipPath>
<clipPath id="clip1_186_4309">
<rect width="2.55524" height="16.6478" fill="white" transform="translate(17.6543 77.3809)"/>
</clipPath>
<clipPath id="clip2_186_4309">
<rect width="15.0992" height="16.6478" fill="white" transform="translate(27.6431 77.3809)"/>
</clipPath>
<clipPath id="clip3_186_4309">
<rect width="12.5439" height="17.3613" fill="white" transform="translate(50.1758 77.1431)"/>
</clipPath>
<clipPath id="clip4_186_4309">
<rect width="12.3116" height="16.6478" fill="white" transform="translate(65.2749 77.3809)"/>
</clipPath>
<clipPath id="clip5_186_4309">
<rect width="12.5439" height="17.3613" fill="white" transform="translate(99.8867 77.1431)"/>
</clipPath>
<clipPath id="clip6_186_4309">
<rect width="15.5637" height="17.3613" fill="white" transform="translate(114.986 77.1431)"/>
</clipPath>
<clipPath id="clip7_186_4309">
<rect width="10.4533" height="16.6478" fill="white" transform="translate(133.105 77.6187)"/>
</clipPath>
<clipPath id="clip8_186_4309">
<rect width="12.3116" height="17.1234" fill="white" transform="translate(146.114 77.3809)"/>
</clipPath>
<clipPath id="clip9_186_4309">
<rect width="12.3116" height="16.6478" fill="white" transform="translate(160.98 77.6187)"/>
</clipPath>
<clipPath id="clip10_186_4309">
<rect width="2.55524" height="16.6478" fill="white" transform="translate(175.847 77.6187)"/>
</clipPath>
<clipPath id="clip11_186_4309">
<rect width="15.5637" height="17.3613" fill="white" transform="translate(180.958 77.1431)"/>
</clipPath>
<clipPath id="clip12_186_4309">
<rect width="13.0085" height="16.6478" fill="white" transform="translate(199.077 77.6187)"/>
</clipPath>
<clipPath id="clip13_186_4309">
<rect width="12.5439" height="17.3613" fill="white" transform="translate(214.641 77.1431)"/>
</clipPath>
</defs>
</svg>
