<svg width="47" height="47" viewBox="0 0 47 47" fill="none" xmlns="http://www.w3.org/2000/svg">
<path d="M13.6715 0.762817C13.1019 1.11539 13.0206 1.36853 13.0206 2.86021V4.1982H11.4114C9.49477 4.1982 8.81674 4.33381 7.55107 4.96665C6.16788 5.64468 5.06494 6.74762 4.3869 8.13082C3.75406 9.39648 3.61846 10.0745 3.61846 11.9911V13.6003H2.2895C0.788783 13.6003 0.535649 13.6817 0.18307 14.2512C-0.0610233 14.6581 -0.0610233 15.4355 0.18307 15.8424C0.535649 16.4119 0.788783 16.4933 2.2895 16.4933H3.61846V17.9398V19.3862H2.2895C0.788783 19.3862 0.535649 19.4676 0.18307 20.0371C-0.0610233 20.444 -0.0610233 21.2214 0.18307 21.6283C0.535649 22.1978 0.788783 22.2792 2.2895 22.2792H3.61846V23.7257V25.1721H2.2895C0.788783 25.1721 0.535649 25.2535 0.18307 25.8231C-0.0610233 26.2299 -0.0610233 27.0074 0.18307 27.4142C0.535649 27.9837 0.788783 28.0651 2.2895 28.0651H3.61846V29.5116V30.9581H2.2895C0.788783 30.9581 0.535649 31.0394 0.18307 31.609C-0.0610233 32.0158 -0.0610233 32.7933 0.18307 33.2001C0.535649 33.7697 0.788783 33.851 2.2895 33.851H3.61846V35.4602C3.61846 37.3768 3.75406 38.0548 4.3869 39.3205C5.06494 40.7037 6.16788 41.8066 7.55107 42.4847C8.81674 43.1175 9.49477 43.2531 11.4114 43.2531H13.0206V44.5821C13.0206 45.7573 13.0386 45.9562 13.2014 46.2184C13.4726 46.6524 13.8794 46.8693 14.467 46.8693C15.0547 46.8693 15.4615 46.6524 15.7327 46.2184C15.8954 45.9562 15.9135 45.7573 15.9135 44.5821V43.2531H17.36H18.8065V44.5821C18.8065 46.0828 18.8878 46.3359 19.4574 46.6885C19.8642 46.9326 20.6417 46.9326 21.0485 46.6885C21.6181 46.3359 21.6994 46.0828 21.6994 44.5821V43.2531H23.1459H24.5924V44.5821C24.5924 46.0828 24.6738 46.3359 25.2433 46.6885C25.6501 46.9326 26.4276 46.9326 26.8344 46.6885C27.404 46.3359 27.4854 46.0828 27.4854 44.5821V43.2531H28.9318H30.3783V44.5821C30.3783 46.0828 30.4597 46.3359 31.0292 46.6885C31.436 46.9326 32.2135 46.9326 32.6204 46.6885C33.1899 46.3359 33.2713 46.0828 33.2713 44.5821V43.2531H34.8805C36.7971 43.2531 37.4751 43.1175 38.7408 42.4847C40.124 41.8066 41.2269 40.7037 41.9049 39.3205C42.5378 38.0548 42.6734 37.3768 42.6734 35.4602V33.851H44.0114C45.503 33.851 45.7562 33.7697 46.1088 33.2001C46.3529 32.7933 46.3529 32.0158 46.1088 31.609C45.7562 31.0394 45.503 30.9581 44.0114 30.9581H42.6734V29.5116V28.0651H44.0114C45.503 28.0651 45.7562 27.9837 46.1088 27.4142C46.3529 27.0074 46.3529 26.2299 46.1088 25.8231C45.7562 25.2535 45.503 25.1721 44.0114 25.1721H42.6734V23.7257V22.2792H44.0114C45.503 22.2792 45.7562 22.1978 46.1088 21.6283C46.3529 21.2214 46.3529 20.444 46.1088 20.0371C45.7562 19.4676 45.503 19.3862 44.0114 19.3862H42.6734V17.9398V16.4933H44.0114C45.503 16.4933 45.7562 16.4119 46.1088 15.8424C46.3529 15.4355 46.3529 14.6581 46.1088 14.2512C45.7562 13.6817 45.503 13.6003 44.0114 13.6003H42.6734V11.9911C42.6734 10.0745 42.5378 9.39648 41.9049 8.13082C41.2269 6.74762 40.124 5.64468 38.7408 4.96665C37.4751 4.33381 36.7971 4.1982 34.8805 4.1982H33.2713V2.86021C33.2713 1.36853 33.1899 1.11539 32.6204 0.762817C32.2135 0.518723 31.436 0.518723 31.0292 0.762817C30.4597 1.11539 30.3783 1.36853 30.3783 2.86021V4.1982H28.9318H27.4854V2.86021C27.4854 1.36853 27.404 1.11539 26.8344 0.762817C26.4276 0.518723 25.6501 0.518723 25.2433 0.762817C24.6738 1.11539 24.5924 1.36853 24.5924 2.86021V4.1982H23.1459H21.6994V2.86021C21.6994 1.69399 21.6814 1.4951 21.5186 1.23293C21.2474 0.798981 20.8406 0.582008 20.253 0.582008C19.6653 0.582008 19.2585 0.798981 18.9873 1.23293C18.8246 1.4951 18.8065 1.69399 18.8065 2.86021V4.1982H17.36H15.9135V2.86021C15.9135 1.69399 15.8954 1.4951 15.7327 1.23293C15.4615 0.798981 15.0547 0.582008 14.467 0.582008C14.1325 0.582008 13.8704 0.63625 13.6715 0.762817ZM31.7796 12.2442C32.1322 13.3381 32.4305 14.2693 32.4576 14.3145C32.4847 14.3597 33.425 14.6942 34.555 15.0558C35.6851 15.4265 36.6072 15.7429 36.6162 15.77C36.6162 15.7972 35.6851 16.1136 34.546 16.4842L32.4847 17.1532L31.8338 19.115C31.4812 20.1908 31.192 21.122 31.192 21.1762C31.192 21.565 30.975 21.0316 30.4235 19.2868C30.08 18.1838 29.7455 17.2346 29.6912 17.1803C29.637 17.1261 28.6877 16.7916 27.5848 16.4481C26.4909 16.0955 25.5868 15.7972 25.5868 15.77C25.5868 15.7429 26.4909 15.4355 27.5848 15.092C28.6877 14.7394 29.637 14.414 29.6912 14.3597C29.7455 14.3055 30.08 13.3562 30.4235 12.2533C30.7761 11.1594 31.0744 10.2553 31.1015 10.2553C31.1287 10.2553 31.436 11.1503 31.7796 12.2442ZM20.7411 21.131C21.3921 23.129 21.9616 24.8105 22.0249 24.8557C22.0791 24.91 23.7607 25.4795 25.7496 26.1214C27.7475 26.7723 29.3839 27.3147 29.3839 27.3419C29.3839 27.369 27.7475 27.9114 25.7586 28.5623C23.7607 29.2042 22.0791 29.7738 22.0249 29.828C21.9616 29.8732 21.3921 31.5547 20.7411 33.5527C20.0993 35.5506 19.5568 37.196 19.5297 37.187C19.5026 37.187 18.9602 35.5506 18.3183 33.5527C17.6764 31.5547 17.1069 29.8732 17.0526 29.819C16.9984 29.7647 15.3169 29.1952 13.3189 28.5533C11.321 27.9114 9.68463 27.369 9.68463 27.3419C9.68463 27.3147 11.321 26.7723 13.3189 26.1304C15.3169 25.4886 16.9984 24.919 17.0526 24.8648C17.1069 24.8105 17.6764 23.129 18.3183 21.131C18.9602 19.1331 19.5026 17.4968 19.5297 17.4968C19.5568 17.4968 20.0993 19.1331 20.7411 21.131Z" fill="#00A8A8"/>
</svg>
